# xmcd
#
# Track frame offsets:
#  183
#  15185
#  27343
#  38270
#  51703
#  63670
#  79503
#  92783
#  108705
#  127505
#  140080
#  154003
#  165428
#  179130
#  191510
#  205385
#  224085
#  234238
#  247173
#  258888
#
# Disc length: 3637 seconds
#
# Revision: 0
# Processed by: cddbd v1.5.1PL2 Copyright (c) Steve Scherf et al.
# Submitted via: Collectorz.com_Music_Collector 6.9
#
DISCID=170e3314
DTITLE=Various Artist - Disc 2
DYEAR=1991
DGENRE=
TTITLE0=Alma Cogan (1932-1966) - I'm In The Mood For Love
TTITLE1=Glen Campbell (1936-    ) - I Can't Help It (If I'm Still In Love With You)
TTITLE2=Cilla Black (1943-    ) - Step Inside Love
TTITLE3=Vince Hill (1937-    ) - Somewhere My Love (Lara's Theme)
TTITLE4=Vikki Carr - You Don't Have To Say You Love Me
TTITLE5=Al Martino (1927-    ) - Sing My Love Song
TTITLE6=Shirley Bassey (1937-    ) - Love Is A Many Splendored Thing
TTITLE7=Iris Williams - I Have Loved Me A Man
TTITLE8=Des O'Connor (1932-    ) - This Guy's In Love With You
TTITLE9=Vikki Carr - If You Love Me (Really Love Me)
TTITLE10=Vince Hill (1937-    ) - No Other Love
TTITLE11=Crystal Gayle  - Hello I Love You
TTITLE12=Matt Monro (1932-1985) - Till Then My Love
TTITLE13=Dean Martin (1917-1995) - I've Got My Love To Keep Me Warm
TTITLE14=Helen Reddy - Where Is The Love
TTITLE15=Ken Dodd (1927-    ) - I Wish You Love
TTITLE16=Glen Campbell (1936-    ) - Love Is Not A Game
TTITLE17=Alma Cogan (1932-1966) - I Can't Give You Anything But Love
TTITLE18=Matt Monro (1932-1985) - Speak Softly Love
TTITLE19=Shirley Bassey (1937-    ) - The Look Of Love
EXTD=
EXTT0=
EXTT1=
EXTT2=
EXTT3=
EXTT4=
EXTT5=
EXTT6=
EXTT7=
EXTT8=
EXTT9=
EXTT10=
EXTT11=
EXTT12=
EXTT13=
EXTT14=
EXTT15=
EXTT16=
EXTT17=
EXTT18=
EXTT19=
PLAYORDER=
